<svg viewBox="0 0 400 250" xmlns="http://www.w3.org/2000/svg">
  <defs>
    <linearGradient id="bggl2" x1="0" y1="0" x2="0" y2="1">
      <stop offset="0%" stop-color="#F5EFE0"/>
      <stop offset="100%" stop-color="#EDE4D0"/>
    </linearGradient>
    <linearGradient id="coolGrass" x1="0" y1="0" x2="0" y2="1">
      <stop offset="0%" stop-color="#5a9e63"/>
      <stop offset="100%" stop-color="#3D6647"/>
    </linearGradient>
    <linearGradient id="warmGrass" x1="0" y1="0" x2="0" y2="1">
      <stop offset="0%" stop-color="#8fbf6a"/>
      <stop offset="100%" stop-color="#6b9e47"/>
    </linearGradient>
  </defs>
  <rect width="400" height="250" fill="url(#bggl2)"/>
  <line x1="200" y1="30" x2="200" y2="215" stroke="#c9b896" stroke-width="1.5" stroke-dasharray="4 4"/>

  <!-- Left: cool-season, cooler tones, dew/frost hint -->
  <rect x="20" y="185" width="160" height="30" fill="url(#coolGrass)"/>
  <g stroke="#2c4d33" stroke-width="2.5" stroke-linecap="round" opacity="0.9">
    <path d="M35 188 q2 -20 -2 -34"/>
    <path d="M55 188 q-3 -18 3 -32"/>
    <path d="M75 188 q2 -22 -3 -36"/>
    <path d="M95 188 q-2 -18 2 -30"/>
    <path d="M115 188 q3 -20 -2 -34"/>
    <path d="M135 188 q-3 -16 2 -28"/>
    <path d="M155 188 q2 -20 -3 -34"/>
  </g>
  <g fill="#eaf3ee" opacity="0.7">
    <circle cx="45" cy="160" r="1.6"/>
    <circle cx="85" cy="155" r="1.4"/>
    <circle cx="125" cy="158" r="1.5"/>
  </g>
  <path d="M20 185 Q100 175 180 185" fill="none" stroke="#c9d9cd" stroke-width="1" opacity="0.5"/>
  <text x="100" y="235" font-family="Arial, sans-serif" font-size="11" font-weight="600" fill="#3D6647" text-anchor="middle">Cool-season</text>

  <!-- Right: warm-season, sun/heat hint -->
  <circle cx="345" cy="55" r="18" fill="#E8A94A" opacity="0.85"/>
  <g stroke="#E8A94A" stroke-width="2" opacity="0.6">
    <line x1="345" y1="25" x2="345" y2="15"/>
    <line x1="370" y1="40" x2="378" y2="33"/>
    <line x1="320" y1="40" x2="312" y2="33"/>
  </g>
  <rect x="220" y="185" width="160" height="30" fill="url(#warmGrass)"/>
  <g stroke="#4d7a34" stroke-width="2.5" stroke-linecap="round" opacity="0.9">
    <path d="M235 188 q3 -16 0 -26"/>
    <path d="M255 188 q-2 -14 3 -24"/>
    <path d="M275 188 q3 -18 -2 -28"/>
    <path d="M295 188 q-3 -14 2 -22"/>
    <path d="M315 188 q2 -16 -3 -26"/>
    <path d="M335 188 q-2 -12 3 -20"/>
    <path d="M355 188 q3 -16 -2 -26"/>
  </g>
  <text x="300" y="235" font-family="Arial, sans-serif" font-size="11" font-weight="600" fill="#6b9e47" text-anchor="middle">Warm-season</text>
</svg>
