<svg viewBox="0 0 400 250" xmlns="http://www.w3.org/2000/svg">
  <defs>
    <linearGradient id="bgw3" x1="0" y1="0" x2="0" y2="1">
      <stop offset="0%" stop-color="#F5EFE0"/>
      <stop offset="100%" stop-color="#EDE4D0"/>
    </linearGradient>
    <linearGradient id="barrelG2" x1="0" y1="0" x2="0" y2="1">
      <stop offset="0%" stop-color="#4a90b8"/>
      <stop offset="100%" stop-color="#2c5f7a"/>
    </linearGradient>
    <linearGradient id="soilRow2" x1="0" y1="0" x2="0" y2="1">
      <stop offset="0%" stop-color="#7A5A3A"/>
      <stop offset="100%" stop-color="#4E3822"/>
    </linearGradient>
  </defs>
  <rect width="400" height="250" fill="url(#bgw3)"/>

  <!-- barrel on stand, elevated -->
  <rect x="30" y="175" width="70" height="14" fill="#6B4C24"/>
  <rect x="35" y="175" width="6" height="35" fill="#5a3e1c"/>
  <rect x="89" y="175" width="6" height="35" fill="#5a3e1c"/>
  <ellipse cx="65" cy="155" rx="34" ry="8" fill="#000" opacity="0.15"/>
  <path d="M32 120 L98 120 L93 172 Q65 180 37 172 Z" fill="url(#barrelG2)"/>
  <ellipse cx="65" cy="120" rx="33" ry="7" fill="#3a7896"/>

  <!-- drip line from spigot to soil row -->
  <path d="M93 165 Q140 165 140 175 L140 200" stroke="#2c5f7a" stroke-width="4" fill="none"/>
  <rect x="0" y="205" width="400" height="45" fill="url(#soilRow2)"/>
  <line x1="140" y1="205" x2="360" y2="205" stroke="#2c5f7a" stroke-width="3.5"/>
  <g>
    <circle cx="180" cy="205" r="3.5" fill="#4a90b8"/>
    <circle cx="230" cy="205" r="3.5" fill="#4a90b8"/>
    <circle cx="280" cy="205" r="3.5" fill="#4a90b8"/>
    <circle cx="330" cy="205" r="3.5" fill="#4a90b8"/>
  </g>
  <g fill="#4A7C59">
    <ellipse cx="175" cy="196" rx="9" ry="5" transform="rotate(-15 175 196)"/>
    <ellipse cx="188" cy="194" rx="9" ry="5" transform="rotate(15 188 194)"/>
    <ellipse cx="225" cy="196" rx="9" ry="5" transform="rotate(-15 225 196)"/>
    <ellipse cx="238" cy="194" rx="9" ry="5" transform="rotate(15 238 194)"/>
    <ellipse cx="275" cy="196" rx="9" ry="5" transform="rotate(-15 275 196)"/>
    <ellipse cx="288" cy="194" rx="9" ry="5" transform="rotate(15 288 194)"/>
    <ellipse cx="325" cy="196" rx="9" ry="5" transform="rotate(-15 325 196)"/>
    <ellipse cx="338" cy="194" rx="9" ry="5" transform="rotate(15 338 194)"/>
  </g>

  <!-- PSI callout -->
  <g transform="translate(140,30)">
    <rect x="0" y="0" width="150" height="55" rx="10" fill="#ffffff" stroke="#c9b896" stroke-width="1"/>
    <text x="75" y="22" font-family="Arial, sans-serif" font-size="10" fill="#5C4433" text-anchor="middle" font-weight="600">Elevated 2-3 ft</text>
    <text x="75" y="40" font-family="Arial, sans-serif" font-size="11" fill="#4A90B8" text-anchor="middle" font-weight="700">≈ 1-1.5 PSI</text>
  </g>
</svg>
